HIERARCHY
ROOT Hips
{
	OFFSET -3.958830 18.904000 13.208200
	CHANNELS 6 Xposition Yposition Zposition Zrotation Yrotation Xrotation 
	JOINT LHipJoint
	{
		OFFSET 0.000000 0.000000 0.000000
		CHANNELS 3 Zrotation Yrotation Xrotation
		JOINT LeftUpLeg
		{
			OFFSET 1.800000 -1.400000 0.085000
			CHANNELS 3 Zrotation Yrotation Xrotation
			JOINT LeftLeg
			{
				OFFSET 2.215000 -6.000000 0.000000
				CHANNELS 3 Zrotation Yrotation Xrotation
				JOINT LeftFoot
				{
					OFFSET 2.500000 -6.900000 0.000000
					CHANNELS 3 Zrotation Yrotation Xrotation
					JOINT LeftToeBase
					{
						OFFSET 0.200000 -0.500000 1.950000
						CHANNELS 3 Zrotation Yrotation Xrotation
						End Site
						{
							OFFSET 0.000000 0.000000 0.000000
						}
					}
				}
			}
		}
	}
	JOINT RHipJoint
	{
		OFFSET 0.000000 0.000000 0.000000
		CHANNELS 3 Zrotation Yrotation Xrotation
		JOINT RightUpLeg
		{
			OFFSET -1.800000 -1.400000 0.085000
			CHANNELS 3 Zrotation Yrotation Xrotation
			JOINT RightLeg
			{
				OFFSET -2.215000 -6.000000 0.000000
				CHANNELS 3 Zrotation Yrotation Xrotation
				JOINT RightFoot
				{
					OFFSET -2.500000 -6.900000 0.000000
					CHANNELS 3 Zrotation Yrotation Xrotation
					JOINT RightToeBase
					{
						OFFSET -0.200000 -0.500000 1.950000
						CHANNELS 3 Zrotation Yrotation Xrotation
						End Site
						{
							OFFSET 0.000000 0.000000 0.000000
						}
					}
				}
			}
		}
	}
	JOINT LowerBack
	{
		OFFSET 0.000000 0.000000 0.000000
		CHANNELS 3 Zrotation Yrotation Xrotation
		JOINT Spine
		{
			OFFSET -0.087000 1.940000 -0.288900
			CHANNELS 3 Zrotation Yrotation Xrotation
			JOINT Spine1
			{
				OFFSET 0.000000 1.950000 0.060000
				CHANNELS 3 Zrotation Yrotation Xrotation
				JOINT Neck
				{
					OFFSET 0.000000 0.000000 0.000000
					CHANNELS 3 Zrotation Yrotation Xrotation
					JOINT Neck1
					{
						OFFSET 0.000000 1.600000 0.340000
						CHANNELS 3 Zrotation Yrotation Xrotation
						JOINT Head
						{
							OFFSET 0.000000 1.667000 -0.240000
							CHANNELS 3 Zrotation Yrotation Xrotation
							End Site
							{
								OFFSET 0.000000 0.000000 0.000000
							}
						}
					}
				}
				JOINT LeftShoulder
				{
					OFFSET 0.000000 0.000000 0.000000
					CHANNELS 3 Zrotation Yrotation Xrotation
					JOINT LeftArm
					{
						OFFSET 2.700000 1.550000 -0.730000
						CHANNELS 3 Zrotation Yrotation Xrotation
						JOINT LeftForeArm
						{
							OFFSET 5.450000 0.000000 0.000000
							CHANNELS 3 Zrotation Yrotation Xrotation
							JOINT LeftHand
							{
								OFFSET 3.450000 0.000000 0.000000
								CHANNELS 3 Zrotation Yrotation Xrotation
								JOINT LeftHandIndex1
								{
									OFFSET 0.750000 0.000000 0.000000
									CHANNELS 3 Zrotation Yrotation Xrotation
									End Site
									{
										OFFSET 0.000000 0.000000 0.000000
									}
								}
							}
						}
					}
				}
				JOINT RightShoulder
				{
					OFFSET 0.000000 0.000000 0.000000
					CHANNELS 3 Zrotation Yrotation Xrotation
					JOINT RightArm
					{
						OFFSET -2.700000 1.550000 -0.730000
						CHANNELS 3 Zrotation Yrotation Xrotation
						JOINT RightForeArm
						{
							OFFSET -5.450000 0.000000 0.000000
							CHANNELS 3 Zrotation Yrotation Xrotation
							JOINT RightHand
							{
								OFFSET -3.450000 0.000000 0.000000
								CHANNELS 3 Zrotation Yrotation Xrotation
								JOINT RightHandIndex1
								{
									OFFSET -0.750000 0.000000 0.000000
									CHANNELS 3 Zrotation Yrotation Xrotation
									End Site
									{
										OFFSET 0.000000 0.000000 0.000000
									}
								}
							}
						}
					}
				}
			}
		}
	}
}
MOTION
Frames: 13
Frame Time: 0.016667
-0.240260 17.699550 -2.023290 -3.921716 -6.988061 7.181259 -14.981449 12.712964 4.154685 2.134624 -5.258344 -31.144828 -10.189683 5.781865 14.974569 -0.639862 3.522969 3.378905 0.311680 -0.172190 0.402790 18.374560 -11.402399 2.279071 -2.952759 2.654630 -4.565029 -2.643383 -7.093617 46.933132 -0.950232 -7.363612 2.088394 -0.060620 0.168300 0.103490 -3.866255 -0.973277 -7.806026 11.317179 1.901873 15.957214 -6.748694 4.161450 8.842019 4.572586 -2.532466 -10.765860 -7.951515 5.814653 47.657677 -5.835760 2.698520 1.278860 -19.851136 -2.065942 1.712356 -44.896527 6.800808 -11.353251 -43.064771 -31.320948 7.273387 -3.598188 3.072761 0.554700 0.111240 -0.109570 0.129820 10.487665 5.050050 9.101176 33.067564 -10.629691 -5.681952 144.040319 45.045056 81.822158 2.098318 -2.158036 -0.276660 0.159760 -0.042350 -0.315040 
-0.270560 17.673820 -2.192570 -3.500507 -7.516366 7.991396 -15.020283 12.412810 4.545257 2.403119 -6.212103 -36.186769 -10.042869 6.403393 18.741880 -0.606513 3.856306 3.208874 0.347180 -0.145470 0.422550 18.369511 -11.436848 2.152474 -3.967186 1.398462 -1.085655 -2.081692 -6.634480 39.349717 -0.779123 -6.499886 2.373742 -0.051920 0.131560 0.119560 -3.812288 -0.697457 -7.888405 10.549243 3.358207 16.032262 -6.583450 5.764100 9.022306 4.504083 -2.263158 -11.141498 -7.669525 5.117518 48.909763 -5.284310 1.906300 0.693520 -19.791499 -3.235769 2.188582 -44.626589 6.181301 -11.086979 -42.837407 -32.958872 7.881866 -3.561687 3.108475 0.579520 0.081930 -0.085620 0.129030 10.553871 6.661011 9.256639 33.134440 -8.594389 -5.733647 140.781633 46.827562 79.739132 2.126866 -2.104718 -0.255280 0.134570 -0.052370 -0.321460 
-0.304230 17.641270 -2.383930 -3.294767 -8.178424 8.652939 -15.075562 12.019178 4.974410 2.836136 -7.017255 -41.679150 -9.158464 7.020524 22.969877 -0.550212 4.305919 3.000158 0.383680 -0.105450 0.459260 18.374420 -11.364044 2.123255 -4.560551 0.515376 1.997405 -1.593074 -6.278036 32.819853 -0.698152 -5.883789 2.582122 -0.041840 0.080680 0.122840 -3.759285 -0.396792 -8.077576 10.080142 4.988790 16.995448 -6.496710 7.715403 8.813844 4.517623 -1.669358 -11.501006 -6.793718 4.037537 50.714891 -4.941380 1.249540 -0.574150 -19.830369 -4.430183 2.375791 -43.870224 4.732365 -10.334725 -42.375196 -33.718430 8.260424 -3.525905 3.104429 0.613690 0.040060 -0.041510 0.122620 10.482988 8.168152 9.533951 34.619254 -7.016985 -6.551268 136.085161 49.794128 77.221561 2.179379 -1.989580 -0.234880 0.127500 -0.070370 -0.329930 
-0.340280 17.571150 -2.574840 -2.620956 -8.887124 9.712113 -15.190388 11.561259 5.380663 2.869663 -7.701945 -46.944563 -8.507395 7.434405 25.579828 -0.513538 4.664895 2.850853 0.397770 -0.087790 0.484360 18.344627 -11.216051 2.086409 -5.535276 0.127116 4.189114 -0.584413 -6.240028 27.502304 -0.645888 -5.541640 2.706374 -0.029900 0.066170 0.128590 -3.577517 -0.098569 -8.232806 8.263186 7.090045 17.177750 -5.692343 9.800745 8.669838 4.501668 -0.544035 -11.396290 -4.554996 2.095392 51.046964 -5.097260 0.746280 -1.513550 -19.880677 -5.256534 2.473632 -43.337157 3.304646 -9.564374 -41.865352 -34.721657 8.742928 -3.536494 3.092442 0.619750 0.038550 -0.027170 0.115600 10.579434 9.026641 9.278668 35.031484 -4.889539 -7.055806 127.766766 53.064182 71.274313 2.241121 -1.864393 -0.231700 0.131660 -0.076940 -0.339060 
-0.367300 17.507270 -2.770690 -1.777851 -8.867573 10.309781 -15.307695 11.289115 5.672177 2.014803 -8.232890 -50.881720 -7.543366 7.328167 26.390962 -0.538874 4.688458 2.830268 0.401210 -0.091100 0.512100 18.280446 -11.037147 2.105524 -6.242954 -0.025725 6.203821 0.424447 -6.361056 23.932152 -0.652892 -5.402139 2.763619 -0.032860 0.048200 0.122410 -3.340967 -0.090272 -8.401584 6.459211 8.544699 18.342528 -4.771929 11.304608 8.186186 4.443158 0.080491 -11.699404 -3.518482 0.953149 52.212123 -4.961840 0.290310 -3.095130 -20.302184 -6.587492 3.020366 -43.271034 3.019125 -9.613185 -41.788845 -36.919861 9.437689 -3.523815 3.047324 0.666460 0.016770 -0.000330 0.098180 11.185892 10.790130 9.197104 34.407671 -2.907041 -7.962662 117.434207 57.207815 64.772384 2.354962 -1.623386 -0.245140 0.161370 -0.068520 -0.358860 
-0.391840 17.416110 -2.957750 -0.628056 -8.354679 11.112778 -15.414978 11.122906 5.839000 -0.221444 -8.887096 -53.660783 -5.919449 6.494909 24.786694 -0.624857 4.168577 3.004068 0.376160 -0.110630 0.488030 18.208163 -10.886292 2.137058 -6.771046 -0.030163 7.509425 1.259956 -6.423597 21.115512 -0.641629 -5.332789 2.789506 -0.040810 0.040520 0.114970 -3.102067 -0.157890 -8.487821 4.281843 9.720248 18.910665 -3.845156 12.261298 7.617537 4.362402 0.474113 -12.000598 -2.745885 0.406692 52.952481 -4.833760 0.298880 -3.252970 -20.614057 -7.707145 3.622028 -43.241855 3.087226 -9.668338 -42.159010 -38.410417 9.989804 -3.521531 3.048324 0.681510 0.012280 -0.002280 0.078360 11.816243 12.394344 9.082300 34.108144 -0.447324 -8.212888 102.583210 62.350735 55.585312 2.535583 -1.352143 -0.255930 0.159480 -0.041520 -0.368940 
-0.404530 17.308710 -3.142670 0.050714 -7.351219 11.936076 -15.467453 11.000157 5.888175 -3.023388 -9.285240 -55.436250 -4.059008 5.381038 21.542777 -0.695143 3.352881 3.299731 0.423060 -0.045780 0.536210 18.174907 -10.792998 2.226645 -6.693731 -0.147094 8.489677 2.076369 -6.429673 18.543014 -0.675276 -5.263022 2.809308 -0.020650 -0.009570 0.112490 -2.995795 -0.114515 -8.549335 3.354185 10.471754 19.513811 -3.076230 12.905344 7.161162 4.463182 0.858124 -12.169395 -1.706103 -0.383332 53.519904 -5.379510 0.558400 -4.194400 -20.864913 -8.605548 4.142418 -43.815286 2.992270 -9.674134 -43.112607 -38.615914 10.231651 -3.482079 3.061482 0.683290 -0.016190 0.037850 0.084150 11.977221 13.734910 8.756369 33.580180 3.158084 -7.481990 77.480479 65.282485 39.532188 2.436272 -1.489796 -0.225470 0.147000 -0.086000 -0.369450 
-0.412960 17.181230 -3.307010 0.630153 -6.011609 12.602952 -15.492672 10.928121 5.893699 -6.376308 -9.736740 -56.245840 -2.069458 4.283619 17.677611 -0.803780 2.564320 3.593063 0.440090 -0.020040 0.542530 18.156912 -10.744295 2.316873 -6.265760 -0.245455 9.145857 2.761009 -6.506329 17.150796 -0.697232 -5.275622 2.806772 -0.004890 -0.018140 0.120230 -2.947155 -0.053453 -8.608558 3.048400 11.062869 20.218495 -2.555015 13.487591 6.242804 4.493240 1.418666 -12.011041 -0.293474 -1.366553 53.803567 -5.427200 0.383360 -4.683160 -22.319985 -9.823779 4.558393 -43.520060 2.930270 -9.373352 -43.663703 -37.146446 9.721264 -3.491393 3.056366 0.686830 -0.013680 0.046290 0.083770 13.383676 15.239076 8.029790 31.996770 5.669869 -8.314673 52.603052 60.275128 23.554365 2.103968 -1.662389 -0.218180 0.144830 -0.088200 -0.372840 
-0.424350 17.037700 -3.445020 1.059166 -4.592219 13.408075 -15.494731 10.850298 5.912865 -9.361466 -10.199061 -56.709494 -0.824162 3.572797 14.133751 -0.906551 2.049920 3.801183 0.408620 -0.056950 0.506010 18.163487 -10.716885 2.388353 -5.590473 -0.372950 9.461898 3.107287 -6.531874 16.344691 -0.688190 -5.291336 2.805507 -0.007750 0.023240 0.123510 -2.966237 0.042860 -8.672945 3.232793 11.327886 20.552283 -2.311123 13.762608 5.416834 4.388528 1.418180 -11.787560 -0.009701 -1.820673 53.433878 -5.134740 -0.172890 -4.432170 -23.648276 -10.595970 4.852495 -43.061958 3.215511 -9.153433 -43.976001 -36.184650 9.315518 -3.535691 3.037837 0.684150 0.013050 0.015170 0.074080 14.909747 16.556370 7.322991 30.885341 8.487703 -8.133354 34.741873 51.881023 12.765862 1.979675 -1.553599 -0.242430 0.164560 -0.046330 -0.373810 
-0.436960 16.890180 -3.559270 1.322440 -3.006319 13.956027 -15.493888 10.795000 5.954818 -11.912954 -10.635509 -57.286035 -0.029087 3.247692 12.426566 -0.978467 1.855505 3.882939 0.342100 -0.137350 0.437020 18.169602 -10.665821 2.482538 -4.750333 -0.583930 10.079547 3.439131 -6.589428 15.471959 -0.674884 -5.324762 2.796678 -0.035690 0.091490 0.136640 -2.992359 0.066621 -8.778718 3.973898 11.566570 21.155005 -1.965226 14.172243 4.524538 4.097101 1.159568 -11.819933 -0.492563 -2.134298 53.505563 -4.034500 -1.494930 -3.953090 -25.146221 -11.430907 5.022169 -42.719943 3.469779 -8.897029 -43.138327 -34.265788 8.205945 -3.603381 2.990618 0.687180 0.046590 -0.026120 0.050670 16.962951 18.047696 7.180398 29.685394 10.495834 -7.112567 21.467672 41.936156 6.191253 1.937681 -1.361446 -0.272690 0.190830 0.031070 -0.365230 
-0.449520 16.762680 -3.659200 1.831978 -0.765796 13.740829 -15.496668 10.774482 6.037239 -14.421134 -11.355100 -57.180549 0.703560 2.985241 11.779047 -1.020640 1.689958 3.937934 0.330720 -0.152680 0.434110 18.166532 -10.575497 2.601088 -3.705480 -1.009451 11.292508 3.449572 -6.600851 14.601343 -0.714356 -5.349013 2.773684 -0.043980 0.084820 0.136060 -3.010350 -0.049429 -8.937475 5.035195 11.295822 22.965659 -2.182133 14.374621 3.696218 4.031775 1.139647 -12.316294 -0.570541 -2.580079 54.829593 -3.319630 -2.402530 -4.553090 -27.072689 -12.624150 5.230752 -41.461052 3.999370 -9.027720 -41.654659 -34.312945 7.702357 -3.586654 2.963462 0.715430 0.027350 -0.013870 0.028580 18.941162 19.660974 7.605957 28.905759 11.781307 -5.894857 11.709104 33.010535 2.639863 1.960574 -1.198499 -0.278110 0.203170 0.056520 -0.369000 
-0.449040 16.642910 -3.732710 2.369957 1.993054 13.536832 -15.493421 10.626812 6.198008 -16.975254 -12.520742 -57.140713 1.707442 2.702507 11.857774 -1.076556 1.579955 3.959149 0.341680 -0.163150 0.455440 18.191454 -10.478704 2.691668 -2.754199 -1.380365 12.502350 3.783075 -6.734552 14.017061 -0.759200 -5.435812 2.720835 -0.042580 0.051900 0.149820 -3.084293 -0.015222 -9.096416 6.404683 10.895035 24.314738 -2.657541 14.451617 3.219269 4.114453 1.726935 -12.804339 0.787284 -3.810499 55.987887 -3.193040 -3.262900 -4.924320 -28.772534 -13.639696 5.360932 -40.172040 4.450057 -9.122000 -40.566609 -34.805125 7.542214 -3.561807 2.975049 0.751110 0.009560 -0.003620 0.000250 20.346536 20.495854 8.043410 29.472833 12.668969 -4.652280 4.410507 25.538744 0.720667 2.004976 -1.113800 -0.279100 0.180660 0.073510 -0.393990 
-0.458800 16.538280 -3.779870 2.837479 4.440306 13.457323 -15.513756 10.471564 6.345029 -19.154395 -13.491019 -57.615974 2.554281 2.566569 12.706987 -1.111795 1.583051 3.945852 0.322370 -0.194370 0.453760 18.199215 -10.370303 2.773252 -1.719035 -1.771306 13.545818 4.093906 -6.825414 13.246560 -0.786760 -5.494701 2.686456 -0.049060 0.037740 0.142200 -3.092405 0.031263 -9.220549 7.301412 10.928155 25.323633 -2.636580 14.866286 2.869457 4.182706 2.352642 -13.386083 2.480088 -5.057552 56.480113 -3.192960 -3.856300 -4.903210 -30.108383 -14.349729 5.551107 -39.535651 5.484409 -9.562274 -39.837324 -35.667893 7.519841 -3.543095 2.968740 0.776700 0.000430 -0.007280 -0.026710 21.480754 21.202613 8.613026 30.362111 12.708130 -4.101351 -0.691685 20.452790 -0.225457 2.048431 -1.079894 -0.299160 0.179180 0.099460 -0.415300 
